<?xml version="1.0" standalone="no"?>
<!DOCTYPE svg PUBLIC "-//W3C//DTD SVG 20010904//EN"
 "http://www.w3.org/TR/2001/REC-SVG-20010904/DTD/svg10.dtd">
<svg version="1.0" xmlns="http://www.w3.org/2000/svg"
 width="1024.000000pt" height="1024.000000pt" viewBox="0 0 1024.000000 1024.000000"
 preserveAspectRatio="xMidYMid meet">

<g transform="translate(0.000000,1024.000000) scale(0.100000,-0.100000)"
fill="#000000" stroke="none">
<path d="M4998 9901 c-175 -69 -283 -238 -264 -415 15 -147 127 -287 269 -337
l37 -13 0 -127 0 -127 -542 -5 c-602 -4 -643 -8 -835 -72 -252 -84 -450 -226
-606 -433 -112 -150 -174 -279 -224 -467 l-27 -100 -5 -569 -6 -568 -70 -4
c-190 -9 -346 -128 -417 -320 -21 -56 -22 -80 -26 -412 -2 -243 0 -375 8 -423
36 -212 215 -382 416 -396 133 -9 230 23 264 88 7 12 10 437 10 1201 0 666 5
1233 10 1298 12 149 39 250 98 374 150 312 423 523 765 593 73 14 209 17 1187
20 1172 4 1264 2 1433 -41 370 -94 662 -383 766 -755 l26 -96 3 -1475 c2
-1325 1 -1482 -13 -1548 -52 -234 -235 -422 -456 -468 -112 -23 -112 -23 -78
65 48 119 85 258 113 422 6 34 11 38 64 58 101 36 163 106 208 234 17 48 108
544 125 680 32 263 -48 412 -231 434 -28 3 -50 10 -50 16 0 5 20 42 45 82 50
80 80 155 101 255 11 56 11 74 -3 143 -15 73 -14 83 3 160 13 57 18 120 18
207 -1 142 -10 177 -75 277 -35 54 -39 64 -29 84 8 14 11 52 8 105 -4 75 -9
93 -53 181 -83 168 -216 279 -391 323 -42 11 -95 20 -116 20 -33 0 -41 5 -56
31 -38 69 -93 137 -133 165 l-42 29 -136 -3 c-175 -4 -224 4 -526 88 -398 110
-576 140 -841 140 -409 0 -719 -119 -857 -328 -36 -54 -53 -72 -70 -72 -13 0
-50 -7 -82 -15 -247 -63 -405 -257 -405 -497 l0 -61 -58 -53 c-43 -38 -67 -71
-90 -121 -43 -96 -66 -217 -58 -311 7 -73 44 -210 73 -265 13 -27 13 -32 -11
-67 -69 -105 -51 -225 65 -416 27 -45 49 -84 49 -87 0 -2 -20 -7 -45 -10 -167
-23 -240 -160 -216 -407 13 -137 116 -686 140 -750 38 -100 118 -179 207 -202
l41 -11 17 -95 c34 -192 106 -396 192 -547 46 -79 170 -251 199 -275 13 -11 8
-21 -38 -74 -86 -98 -210 -303 -271 -446 l-28 -65 -226 -97 c-511 -218 -1207
-524 -1349 -593 -313 -151 -483 -295 -647 -548 -132 -201 -224 -475 -243 -716
-9 -123 -4 -129 237 -285 653 -422 1576 -694 2730 -805 420 -41 552 -46 1165
-46 671 1 944 14 1420 70 572 68 1174 209 1630 382 154 59 471 200 572 254
123 67 417 264 448 301 26 31 27 36 22 108 -6 91 -48 283 -89 405 -103 310
-314 592 -562 753 -81 53 -299 156 -661 312 -143 62 -447 195 -675 295 -228
100 -432 188 -452 195 -34 13 -39 19 -68 102 -35 97 -125 253 -216 373 -33 43
-63 83 -68 90 -6 8 10 39 51 96 33 46 66 94 74 107 13 20 23 23 119 27 273 11
491 135 638 364 91 140 132 299 132 506 l0 135 53 0 c167 0 327 103 406 260
49 100 52 135 49 547 -3 368 -4 380 -26 435 -76 188 -221 300 -403 311 l-74 4
-6 564 -5 564 -27 100 c-131 499 -496 846 -995 950 -133 27 -292 35 -749 35
l-453 0 0 128 0 129 38 11 c21 7 63 30 94 52 222 158 229 478 14 640 -30 23
-79 50 -110 60 -73 26 -202 26 -268 1z m228 -170 c22 -10 56 -37 76 -61 124
-145 22 -364 -170 -363 -192 0 -292 223 -164 365 68 75 171 99 258 59z m-986
-2128 c30 -8 125 -48 211 -88 191 -91 276 -120 410 -141 129 -21 350 -15 455
11 l72 18 43 -37 c24 -21 78 -54 118 -74 72 -36 79 -37 180 -37 96 0 111 3
158 27 29 15 85 55 125 89 88 75 157 109 219 109 132 0 277 -156 330 -357 18
-70 20 -96 14 -253 -8 -205 -2 -236 75 -445 28 -76 49 -140 46 -142 -3 -3 -64
6 -137 20 -124 24 -133 27 -164 61 -18 20 -61 49 -96 65 -107 49 -200 64 -404
64 -282 -1 -425 -42 -425 -124 0 -31 13 -44 54 -55 27 -6 24 -9 -47 -34 -42
-15 -105 -44 -139 -65 -50 -32 -76 -40 -145 -49 -127 -15 -233 1 -302 47 -30
20 -88 48 -128 63 l-74 27 30 13 c26 11 31 19 31 47 0 86 -153 131 -445 130
-247 0 -377 -35 -486 -129 -43 -37 -53 -41 -155 -58 -60 -10 -124 -22 -141
-26 -23 -6 -33 -5 -33 3 0 7 28 93 62 192 l63 180 1 205 c2 214 10 276 54 394
30 79 109 194 177 256 121 111 232 137 393 93z m-1450 -1719 l0 -597 -64 5
c-112 9 -188 65 -239 176 -21 46 -22 57 -22 422 0 360 1 377 21 421 49 105
142 169 246 169 l58 0 0 -596z m4825 582 c52 -22 120 -91 146 -149 24 -52 24
-54 24 -427 l0 -375 -33 -67 c-50 -101 -135 -158 -238 -158 l-44 0 0 595 0
595 55 0 c31 0 71 -6 90 -14z m-3266 -286 c197 -15 346 -37 386 -56 20 -9 45
-31 58 -48 48 -67 17 -294 -63 -462 -48 -99 -111 -165 -189 -196 -53 -22 -69
-23 -311 -23 -403 0 -449 22 -514 247 -33 116 -59 295 -54 379 6 117 39 140
226 157 138 13 306 14 461 2z m2076 -11 c125 -18 151 -50 148 -189 -2 -177
-55 -398 -113 -478 -64 -89 -144 -107 -475 -107 l-250 0 -56 28 c-31 15 -75
47 -97 71 -86 93 -150 272 -159 443 -6 100 -5 103 21 138 35 46 66 60 151 73
73 11 306 30 435 36 109 4 314 -4 395 -15z m-3106 -145 c44 -31 51 -68 44
-241 -5 -144 8 -548 23 -715 6 -60 5 -68 -10 -68 -29 0 -71 52 -95 114 -44
118 -126 664 -119 795 4 77 7 86 32 108 32 28 90 31 125 7z m3738 -8 c26 -22
28 -31 31 -108 4 -92 -39 -413 -88 -656 -20 -105 -35 -154 -54 -183 -26 -38
-70 -69 -82 -56 -3 3 -1 96 5 206 6 111 11 323 11 471 0 285 4 314 47 339 34
20 100 13 130 -13z m-1834 -64 c9 -9 30 -71 47 -137 62 -245 131 -378 241
-465 118 -93 172 -105 469 -105 315 1 455 28 544 107 61 53 90 99 121 191 25
76 75 326 75 378 0 16 4 29 9 29 15 0 22 -281 11 -475 -26 -471 -96 -728 -280
-1023 l-28 -46 -109 -2 c-129 -2 -242 -26 -283 -60 -71 -61 -77 -168 -14 -262
22 -31 40 -60 42 -64 2 -4 -21 -4 -50 -1 l-54 5 -36 -73 c-21 -41 -54 -95 -75
-120 -109 -132 -314 -236 -425 -215 -20 4 -60 23 -88 42 -78 54 -122 67 -230
67 -107 1 -159 -16 -224 -74 -51 -44 -111 -50 -207 -19 -186 60 -333 206 -382
380 -20 69 -34 188 -43 351 -9 161 0 234 31 265 23 23 83 35 70 14 -11 -18 32
-74 123 -162 115 -111 196 -170 305 -224 125 -61 210 -78 361 -71 184 8 311
55 478 179 104 78 248 220 248 247 0 27 -13 26 -91 -3 -79 -29 -288 -72 -429
-87 -63 -7 -184 -9 -305 -6 -273 7 -472 42 -625 110 l-55 25 295 -2 c322 -1
343 2 424 55 l47 32 22 -21 c12 -12 45 -31 72 -44 49 -23 54 -23 377 -20 l327
3 16 -25 c9 -13 23 -59 31 -102 8 -44 17 -90 20 -103 l5 -24 26 24 c36 34 73
116 73 165 0 115 -72 220 -172 248 -29 8 -109 20 -178 26 -69 6 -170 17 -224
25 -55 8 -102 15 -105 15 -3 0 17 13 45 30 73 41 104 81 104 134 0 69 -27 137
-75 190 l-44 49 20 -63 c34 -110 13 -147 -136 -233 -139 -80 -191 -100 -238
-93 -55 9 -124 40 -170 77 -21 17 -49 33 -64 35 -70 13 -106 49 -108 107 -1
36 -4 41 -21 39 -32 -6 -56 -38 -61 -83 -6 -55 22 -101 89 -144 26 -16 47 -33
47 -36 1 -9 -154 -36 -249 -44 -282 -23 -356 -48 -401 -138 -35 -67 -36 -139
-4 -247 23 -79 27 -104 21 -162 -6 -70 -21 -117 -49 -153 -14 -18 -19 -15
-117 70 -205 178 -321 335 -395 531 -74 196 -137 756 -120 1054 4 67 10 119
12 116 3 -2 14 -55 24 -118 27 -159 74 -331 106 -390 51 -94 134 -141 293
-168 101 -17 453 -24 537 -11 155 24 268 93 353 214 56 78 81 139 116 277 56
220 64 230 189 230 66 0 85 -4 98 -18z m320 -1531 c-135 -122 -401 -183 -588
-136 -82 21 -234 97 -270 135 l-30 32 30 -6 c205 -40 590 -41 805 -2 41 8 80
14 85 15 6 0 -9 -17 -32 -38z m-1447 -821 c163 -156 390 -310 545 -370 161
-62 235 -74 439 -74 339 1 517 53 785 232 141 94 284 218 369 319 34 39 64 72
69 72 12 2 8 -91 -9 -159 -18 -77 -84 -205 -151 -292 -159 -210 -526 -504
-862 -693 -92 -51 -104 -55 -165 -55 -63 0 -69 2 -180 70 -313 188 -591 399
-735 557 -79 85 -213 285 -239 355 -22 58 -43 184 -35 205 3 7 21 -8 42 -35
21 -26 78 -85 127 -132z m1340 -1222 c38 -32 86 -72 106 -90 l37 -33 -101
-182 -101 -183 -258 0 -257 0 -20 33 c-10 17 -55 101 -98 185 l-79 154 50 45
c28 24 77 65 109 89 l60 45 241 -3 242 -3 69 -57z m-74 -773 c73 -351 227
-1202 220 -1210 -3 -3 -212 -5 -464 -5 -430 0 -458 1 -458 18 0 56 205 1166
240 1302 l9 35 213 -5 213 -5 27 -130z"/>
<path d="M4181 6054 c-71 -19 -110 -44 -166 -106 -50 -55 -52 -63 -29 -96 25
-36 63 -29 114 23 24 25 47 45 51 45 3 0 10 -19 13 -42 11 -70 49 -124 100
-143 56 -22 104 -14 147 22 36 31 68 94 69 136 0 36 13 34 47 -8 61 -77 126
-14 73 72 -57 94 -258 140 -419 97z"/>
<path d="M5783 6056 c-123 -40 -194 -121 -167 -190 10 -26 61 -20 80 9 9 14
25 30 35 35 15 9 19 3 29 -46 21 -102 100 -158 189 -134 64 17 106 77 123 174
2 16 11 11 54 -28 57 -50 81 -56 109 -26 15 17 16 24 5 50 -18 44 -112 125
-167 145 -65 23 -234 30 -290 11z"/>
<path d="M4793 4024 c-7 -19 23 -68 59 -96 126 -96 292 -112 446 -43 68 30
130 88 134 125 2 17 -1 24 -11 22 -164 -35 -389 -39 -549 -9 -59 11 -75 11
-79 1z"/>
</g>
</svg>
